<svg width="52" height="26" viewBox="0 0 52 26" fill="none" xmlns="http://www.w3.org/2000/svg">
			<rect
				y="14"
				width="16"
				height="12"
				rx="2"
				fill="white"
				fill-opacity="0.1"
				style="fill:white;fill:white;fill-opacity:0.1;"
			/>
			<rect
				x="0.5"
				y="14.5"
				width="15"
				height="11"
				rx="1.5"
				stroke="white"
				stroke-opacity="0.1"
				style="stroke:white;stroke:white;stroke-opacity:0.1;"
			/>
			<path
				d="M7.33523 22.5L4.78977 19.9545L7.33523 17.4091L7.77273 17.8409L5.97159 19.642H10.6364V20.267H5.97159L7.77273 22.0625L7.33523 22.5Z"
				fill="white"
				fill-opacity="0.5"
				style="fill:white;fill:white;fill-opacity:0.5;"
			/>
			<rect
				x="18"
				y="14"
				width="16"
				height="12"
				rx="2"
				fill="white"
				fill-opacity="0.1"
				style="fill:white;fill:white;fill-opacity:0.1;"
			/>
			<rect
				x="18.5"
				y="14.5"
				width="15"
				height="11"
				rx="1.5"
				stroke="white"
				stroke-opacity="0.1"
				style="stroke:white;stroke:white;stroke-opacity:0.1;"
			/>
			<path
				d="M26.1307 17.1818V21.8523L27.9261 20.0511L28.3693 20.4886L25.8182 23.0341L23.2727 20.4886L23.7045 20.0511L25.5057 21.8523V17.1818H26.1307Z"
				fill="white"
				fill-opacity="0.5"
				style="fill:white;fill:white;fill-opacity:0.5;"
			/>
			<rect
				x="18"
				width="16"
				height="12"
				rx="2"
				fill="white"
				fill-opacity="0.1"
				style="fill:white;fill:white;fill-opacity:0.1;"
			/>
			<rect
				x="18.5"
				y="0.5"
				width="15"
				height="11"
				rx="1.5"
				stroke="white"
				stroke-opacity="0.1"
				style="stroke:white;stroke:white;stroke-opacity:0.1;"
			/>
			<path
				d="M25.5057 9V4.32955L23.7102 6.13068L23.267 5.69318L25.8182 3.14773L28.3636 5.69318L27.9318 6.13068L26.1307 4.32955V9H25.5057Z"
				fill="white"
				fill-opacity="0.5"
				style="fill:white;fill:white;fill-opacity:0.5;"
			/>
			<rect
				x="36"
				y="14"
				width="16"
				height="12"
				rx="2"
				fill="white"
				fill-opacity="0.1"
				style="fill:white;fill:white;fill-opacity:0.1;"
			/>
			<rect
				x="36.5"
				y="14.5"
				width="15"
				height="11"
				rx="1.5"
				stroke="white"
				stroke-opacity="0.1"
				style="stroke:white;stroke:white;stroke-opacity:0.1;"
			/>
			<path
				d="M44.3011 22.5L43.8636 22.0682L45.6648 20.267H41V19.642H45.6648L43.8636 17.8466L44.3011 17.4091L46.8466 19.9545L44.3011 22.5Z"
				fill="white"
				fill-opacity="0.5"
				style="fill:white;fill:white;fill-opacity:0.5;"
			/>
		</svg>