<svg width="20" height="20" viewBox="0 0 20 20" fill="none" xmlns="http://www.w3.org/2000/svg">
<rect width="20" height="20" rx="5" fill="url(#paint0_linear_31_907)" style=""/>
<g clip-path="url(#clip0_31_907)">
<path fill-rule="evenodd" clip-rule="evenodd" d="M3.49542 13.1765C2.66964 12.5302 2.25675 12.2071 2.10205 11.8345L2 11.327V9.24767H2.52064V10.2821C2.74848 10.0685 3.06617 9.81983 3.49542 9.4839L7.62393 6.25291C8.44971 5.60665 8.86258 5.28352 9.3387 5.16245C9.75751 5.05596 10.2086 5.05596 10.6274 5.16245C11.1035 5.28352 11.5164 5.60665 12.3422 6.25291L16.4707 9.4839C16.9 9.81983 17.2177 10.0685 17.4455 10.2821V9.24767H17.9662V11.3302C17.9662 11.5004 17.9321 11.6706 17.8641 11.8345C17.7094 12.2071 17.2965 12.5302 16.4707 13.1765L12.3422 16.4075C11.5165 17.0538 11.1035 17.3769 10.6274 17.4979C10.2086 17.6044 9.75751 17.6044 9.3387 17.4979C8.86258 17.3769 8.44971 17.0538 7.62393 16.4075L3.49542 13.1765Z" fill="#DBDBDB" style="fill:#DBDBDB;fill:color(display-p3 0.8588 0.8588 0.8588);fill-opacity:1;"/>
<path d="M3.49542 11.0939C2.66965 10.4476 2.25676 10.1245 2.10206 9.75189C1.96598 9.42414 1.96598 9.07108 2.10206 8.74332C2.25676 8.37074 2.66965 8.04761 3.49542 7.40132L7.62393 4.17033C8.44971 3.52407 8.86258 3.20094 9.3387 3.07987C9.75751 2.97338 10.2086 2.97338 10.6274 3.07987C11.1035 3.20094 11.5164 3.52407 12.3422 4.17033L16.4707 7.40132C17.2965 8.04761 17.7094 8.37074 17.8641 8.74332C18.0001 9.07108 18.0001 9.42414 17.8641 9.75189C17.7094 10.1245 17.2965 10.4476 16.4707 11.0939L12.3422 14.3249C11.5164 14.9712 11.1035 15.2943 10.6274 15.4154C10.2086 15.5218 9.75751 15.5218 9.3387 15.4154C8.86258 15.2943 8.44971 14.9712 7.62393 14.3249L3.49542 11.0939Z" fill="white" style="fill:white;fill:white;fill-opacity:1;"/>
<path d="M8.21355 7.09365C7.80064 6.77052 7.5942 6.60895 7.51683 6.42265C7.44882 6.25877 7.44882 6.08224 7.51683 5.91836C7.5942 5.73206 7.80064 5.57049 8.21355 5.24736L8.8033 4.78579C9.21621 4.46266 9.42265 4.30109 9.66069 4.24056C9.87011 4.18731 10.0957 4.18731 10.3051 4.24056C10.5431 4.30109 10.7496 4.46266 11.1625 4.78579L11.7522 5.24736C12.1652 5.57049 12.3716 5.73206 12.4489 5.91836C12.517 6.08224 12.517 6.25877 12.4489 6.42265C12.3716 6.60895 12.1652 6.77052 11.7522 7.09365L11.1625 7.55523C10.7496 7.87836 10.5431 8.03992 10.3051 8.10044C10.0957 8.1537 9.87011 8.1537 9.66069 8.10044C9.42265 8.03992 9.21621 7.87836 8.8033 7.55523L8.21355 7.09365Z" fill="#FF8686" style="fill:#FF8686;fill:color(display-p3 1.0000 0.5255 0.5255);fill-opacity:1;"/>
<path d="M12.1456 10.1708C11.7328 9.84767 11.5263 9.68611 11.449 9.4998C11.3809 9.33592 11.3809 9.15939 11.449 8.99551C11.5263 8.8092 11.7328 8.64764 12.1456 8.32451L12.7354 7.86293C13.1483 7.5398 13.3548 7.37823 13.5928 7.31772C13.8022 7.26446 14.0278 7.26446 14.2372 7.31772C14.4752 7.37823 14.6817 7.5398 15.0946 7.86293L15.6844 8.32451C16.0972 8.64764 16.3037 8.8092 16.3811 8.99551C16.4491 9.15939 16.4491 9.33592 16.3811 9.4998C16.3037 9.68611 16.0972 9.84767 15.6844 10.1708L15.0946 10.6323C14.6817 10.9555 14.4752 11.117 14.2372 11.1776C14.0278 11.2309 13.8022 11.2309 13.5928 11.1776C13.3548 11.117 13.1483 10.9555 12.7354 10.6323L12.1456 10.1708Z" fill="#5AFF88" style="fill:#5AFF88;fill:color(display-p3 0.3529 1.0000 0.5333);fill-opacity:1;"/>
<path d="M4.28189 10.1708C3.869 9.84767 3.66256 9.68611 3.58521 9.4998C3.51717 9.33592 3.51717 9.15939 3.58521 8.99551C3.66256 8.8092 3.869 8.64764 4.28189 8.32451L4.87168 7.86293C5.28457 7.5398 5.49101 7.37823 5.72908 7.31772C5.93847 7.26446 6.16403 7.26446 6.37342 7.31772C6.6115 7.37823 6.81794 7.5398 7.23081 7.86293L11.7525 11.4017C12.1654 11.7248 12.3719 11.8864 12.4492 12.0726C12.5172 12.2365 12.5172 12.413 12.4492 12.5769C12.3719 12.7632 12.1654 12.9248 11.7525 13.2479L11.1627 13.7095C10.7498 14.0326 10.5434 14.1942 10.3053 14.2547C10.0959 14.308 9.87038 14.308 9.66096 14.2547C9.42291 14.1942 9.21648 14.0326 8.80357 13.7095L4.28189 10.1708Z" fill="#768CFF" style="fill:#768CFF;fill:color(display-p3 0.4627 0.5490 1.0000);fill-opacity:1;"/>
</g>
<defs>
<linearGradient id="paint0_linear_31_907" x1="0" y1="0" x2="20" y2="21" gradientUnits="userSpaceOnUse">
<stop offset="0.46875" stop-color="white" style="stop-color:white;stop-color:white;stop-opacity:1;"/>
<stop offset="1" stop-color="#D6D6D6" style="stop-color:#D6D6D6;stop-color:color(display-p3 0.8375 0.8375 0.8375);stop-opacity:1;"/>
</linearGradient>
<clipPath id="clip0_31_907">
<rect width="16" height="14.5778" fill="white" style="fill:white;fill:white;fill-opacity:1;" transform="translate(2 3)"/>
</clipPath>
</defs>
</svg>
