<svg width="20" height="20" viewBox="0 0 20 20" fill="none" xmlns="http://www.w3.org/2000/svg">
<rect width="20" height="20" rx="5" fill="url(#paint0_linear_31_832)" style=""/>
<g clip-path="url(#clip0_31_832)">
<path d="M15.2329 5.30672C15.254 5.23188 15.2548 5.15277 15.2352 5.07754C15.2155 5.00231 15.1762 4.93367 15.1212 4.87869C15.0662 4.82371 14.9976 4.78438 14.9224 4.76474C14.8471 4.7451 14.768 4.74586 14.6932 4.76695L4.19318 7.95086C4.10746 7.97505 4.03116 8.02483 3.97449 8.09355C3.91782 8.16227 3.88347 8.24665 3.87604 8.33541C3.86861 8.42417 3.88844 8.51308 3.9329 8.59027C3.97736 8.66745 4.04431 8.72923 4.12482 8.76734L8.80717 10.9844C8.89833 11.0276 8.97174 11.101 9.01498 11.1922L11.2326 15.874C11.2707 15.9545 11.3324 16.0214 11.4096 16.0659C11.4868 16.1104 11.5757 16.1302 11.6645 16.1228C11.7533 16.1153 11.8376 16.081 11.9063 16.0243C11.9751 15.9676 12.0248 15.8913 12.049 15.8056L15.2329 5.30672Z" stroke="white" style="stroke:white;stroke:white;stroke-opacity:1;" stroke-width="1.09375" stroke-linecap="round" stroke-linejoin="round"/>
<path d="M8.9292 11.0708L11.75 8.25" stroke="white" style="stroke:white;stroke:white;stroke-opacity:1;" stroke-width="1.09375" stroke-linecap="round" stroke-linejoin="round"/>
</g>
<defs>
<linearGradient id="paint0_linear_31_832" x1="0" y1="0" x2="20" y2="21" gradientUnits="userSpaceOnUse">
<stop offset="0.0729167" stop-color="#FF6363" style="stop-color:#FF6363;stop-color:color(display-p3 1.0000 0.3882 0.3882);stop-opacity:1;"/>
<stop offset="1" stop-color="#C22424" style="stop-color:#C22424;stop-color:color(display-p3 0.7625 0.1430 0.1430);stop-opacity:1;"/>
</linearGradient>
<clipPath id="clip0_31_832">
<rect width="14" height="14" fill="white" style="fill:white;fill:white;fill-opacity:1;" transform="translate(3 3)"/>
</clipPath>
</defs>
</svg>
