<svg width="20" height="20" viewBox="0 0 20 20" fill="none" xmlns="http://www.w3.org/2000/svg">
<rect width="20" height="20" rx="5" fill="url(#paint0_linear_42_542)" style=""/>
<rect width="20" height="20" rx="5" fill="url(#paint1_linear_42_542)" style=""/>
<path d="M13.9845 5.60161C14.0912 5.60078 14.1934 5.55833 14.2693 5.4833L14.9551 4.79971L15.6124 4.14242C15.62 4.13525 15.6261 4.12659 15.6302 4.11698C15.6344 4.10737 15.6365 4.09702 15.6365 4.08655C15.6365 4.07608 15.6344 4.06572 15.6302 4.05611C15.6261 4.0465 15.62 4.03785 15.6124 4.03068C15.6061 4.02234 15.5982 4.01533 15.5892 4.01006C15.5801 4.0048 15.5701 4.00138 15.5598 4H10.4198C10.3146 3.99971 10.2103 4.02019 10.113 4.06025C10.0158 4.10031 9.92735 4.15917 9.85286 4.23346C9.77837 4.30774 9.71926 4.396 9.67894 4.49317C9.63861 4.59034 9.61786 4.69451 9.61786 4.79971V14.0018C9.61786 14.1082 9.57561 14.2101 9.50042 14.2853C9.42523 14.3605 9.32324 14.4028 9.21691 14.4028H6.05313C6.00082 14.4021 5.94889 14.4118 5.90037 14.4313C5.85184 14.4509 5.8077 14.4799 5.7705 14.5167L5.09568 15.2047L4.43838 15.862C4.43069 15.8693 4.42458 15.8782 4.4204 15.888C4.41622 15.8977 4.41406 15.9083 4.41406 15.9189C4.41406 15.9296 4.41622 15.9401 4.4204 15.9499C4.42458 15.9597 4.43069 15.9685 4.43838 15.9759C4.44568 15.9836 4.45452 15.9898 4.46433 15.9939C4.47414 15.9981 4.4847 16.0002 4.49535 16H9.61786C9.83015 16 10.0338 15.9158 10.1841 15.7659C10.3344 15.616 10.4192 15.4126 10.4198 15.2003V5.99818C10.4195 5.94544 10.4296 5.89317 10.4497 5.8444C10.4697 5.79562 10.4993 5.7513 10.5365 5.71401C10.5738 5.67672 10.6181 5.6472 10.6669 5.62715C10.7157 5.60711 10.768 5.59694 10.8207 5.59723H13.9845V5.60161Z" fill="white" style="fill:white;fill:white;fill-opacity:1;"/>
<path d="M4.80193 14.922L5.4877 14.2384C5.5622 14.1632 5.60394 14.0616 5.60383 13.9558V10.8029C5.60497 10.6966 5.64789 10.5949 5.7233 10.5199C5.79872 10.4449 5.9006 10.4026 6.00697 10.402H9.11596C9.14232 10.402 9.16763 10.3917 9.18647 10.3733C9.20531 10.3548 9.21618 10.3297 9.21675 10.3034V9.6965C9.21618 9.67015 9.20531 9.64507 9.18647 9.62664C9.16763 9.60821 9.14232 9.5979 9.11596 9.5979H4.80193C4.69635 9.59761 4.59177 9.61823 4.4942 9.65856C4.39664 9.6989 4.30803 9.75815 4.23348 9.8329C4.15893 9.90765 4.09992 9.99643 4.05985 10.0941C4.01978 10.1918 3.99945 10.2964 4.00003 10.402V15.5289C3.99974 15.5397 4.00162 15.5505 4.00556 15.5606C4.0095 15.5707 4.01543 15.5799 4.02298 15.5876C4.03054 15.5954 4.03958 15.6016 4.04956 15.6058C4.05954 15.61 4.07026 15.6121 4.0811 15.6121C4.0914 15.6121 4.10158 15.61 4.11101 15.6058C4.12044 15.6017 4.1289 15.5956 4.13587 15.588L4.80193 14.922Z" fill="white" style="fill:white;fill:white;fill-opacity:1;"/>
<path d="M15.9017 4.41845L15.2444 5.07574L14.5498 5.7659C14.5128 5.80299 14.4834 5.84707 14.4635 5.89559C14.4435 5.9441 14.4334 5.99609 14.4337 6.04854V9.20135C14.4334 9.25401 14.4228 9.30609 14.4024 9.35463C14.382 9.40316 14.3522 9.4472 14.3147 9.48423C14.2773 9.52126 14.2329 9.55055 14.1842 9.57043C14.1354 9.59032 14.0832 9.6004 14.0306 9.60011H10.9216C10.895 9.60067 10.8697 9.61147 10.8509 9.63025C10.8322 9.64903 10.8214 9.67434 10.8208 9.7009V10.3012C10.8208 10.328 10.8314 10.3536 10.8503 10.3725C10.8692 10.3914 10.8949 10.402 10.9216 10.402H15.2356C15.3408 10.4023 15.4451 10.3818 15.5423 10.3418C15.6396 10.3017 15.728 10.2428 15.8025 10.1686C15.877 10.0943 15.9361 10.006 15.9764 9.90885C16.0168 9.81168 16.0375 9.70751 16.0375 9.6023V4.47541C16.037 4.45409 16.0282 4.43379 16.0132 4.41871C15.9981 4.40362 15.9778 4.3949 15.9565 4.39435C15.9458 4.39432 15.9353 4.39644 15.9255 4.40058C15.9157 4.40472 15.9069 4.4108 15.8995 4.41845" fill="white" style="fill:white;fill:white;fill-opacity:1;"/>
<path d="M6.10543 9.20141H6.80654V7.20105C6.80712 7.09489 6.84955 6.99324 6.92461 6.91817C6.99968 6.8431 7.10133 6.80067 7.20749 6.8001H9.21443V6.09898C9.21443 6.08585 9.21181 6.07285 9.20672 6.06074C9.20163 6.04863 9.19417 6.03767 9.18478 6.02848C9.17539 6.0193 9.16426 6.01208 9.15205 6.00726C9.13983 6.00243 9.12677 6.0001 9.11364 6.00039H6.80873C6.70353 6.0001 6.5993 6.02057 6.50203 6.06063C6.40475 6.10069 6.31633 6.15955 6.24184 6.23384C6.16735 6.30813 6.10824 6.39639 6.06792 6.49356C6.02759 6.59072 6.00684 6.69489 6.00684 6.8001V9.10062C6.00683 9.12698 6.01715 9.15229 6.03558 9.17113C6.05401 9.18997 6.07908 9.20084 6.10543 9.20141Z" fill="white" style="fill:white;fill:white;fill-opacity:1;"/>
<path d="M13.9298 10.803H13.2287V12.8033C13.2275 12.9091 13.1849 13.0102 13.1099 13.0848C13.0348 13.1594 12.9335 13.2015 12.8277 13.2021H10.8208V13.9032C10.8214 13.9296 10.8322 13.9546 10.8511 13.9731C10.8699 13.9915 10.8952 14.0018 10.9216 14.0018H13.2287C13.3339 14.0021 13.4381 13.9816 13.5354 13.9416C13.6327 13.9015 13.7211 13.8426 13.7956 13.7684C13.8701 13.6941 13.9292 13.6058 13.9695 13.5086C14.0098 13.4115 14.0306 13.3073 14.0306 13.2021V10.9038C14.03 10.8772 14.0192 10.8519 14.0004 10.8331C13.9817 10.8143 13.9564 10.8035 13.9298 10.803Z" fill="white" style="fill:white;fill:white;fill-opacity:1;"/>
<defs>
<linearGradient id="paint0_linear_42_542" x1="0" y1="0" x2="20" y2="21" gradientUnits="userSpaceOnUse">
<stop offset="0.46875" stop-color="white" style="stop-color:white;stop-color:white;stop-opacity:1;"/>
<stop offset="1" stop-color="#D6D6D6" style="stop-color:#D6D6D6;stop-color:color(display-p3 0.8375 0.8375 0.8375);stop-opacity:1;"/>
</linearGradient>
<linearGradient id="paint1_linear_42_542" x1="0" y1="0" x2="20" y2="21" gradientUnits="userSpaceOnUse">
<stop stop-color="#3999E7" style="stop-color:#3999E7;stop-color:color(display-p3 0.2235 0.6000 0.9059);stop-opacity:1;"/>
<stop offset="1" stop-color="#055BA5" style="stop-color:#055BA5;stop-color:color(display-p3 0.0196 0.3569 0.6471);stop-opacity:1;"/>
</linearGradient>
</defs>
</svg>
