<svg width="20" height="20" viewBox="0 0 20 20" fill="none" xmlns="http://www.w3.org/2000/svg">
<rect width="20" height="20" rx="5" fill="url(#paint0_linear_31_844)" style=""/>
<path fill-rule="evenodd" clip-rule="evenodd" d="M4.9501 8.50001C4.83964 8.50001 4.7501 8.58956 4.7501 8.70001V15.05C4.7501 15.1605 4.83964 15.25 4.9501 15.25H6.8001C6.91055 15.25 7.0001 15.1605 7.0001 15.05V8.70001C7.0001 8.58956 6.91056 8.50001 6.8001 8.50001H4.9501ZM5.15641 6.94832C5.36726 7.09695 5.61724 7.18014 5.8751 7.18751C6.22789 7.19153 6.56792 7.05573 6.82089 6.80979C7.07385 6.56385 7.21917 6.22778 7.2251 5.87501C7.22499 5.61705 7.14887 5.36483 7.00624 5.14988C6.86361 4.93492 6.6608 4.76677 6.42315 4.66642C6.1855 4.56607 5.92355 4.53798 5.67002 4.58566C5.4165 4.63334 5.18264 4.75467 4.99768 4.93449C4.81272 5.11432 4.68485 5.34466 4.63005 5.59674C4.57525 5.84882 4.59596 6.11146 4.68957 6.35185C4.78318 6.59223 4.94556 6.79969 5.15641 6.94832ZM13.0001 15.05C13.0001 15.1605 13.0896 15.25 13.2001 15.25H15.0486C15.1597 15.25 15.2494 15.1596 15.2486 15.0485L15.2201 11.17C15.2201 9.07001 13.8626 8.42501 12.7001 8.42501C12.3009 8.41201 11.9051 8.50174 11.5505 8.68559C11.3948 8.7663 11.2494 8.86397 11.1167 8.97638C10.9652 9.10471 10.6751 9.00523 10.6751 8.80668V8.70001C10.6751 8.58956 10.5856 8.50001 10.4751 8.50001H8.7001C8.58964 8.50001 8.5001 8.58956 8.5001 8.70001V15.05C8.5001 15.1605 8.58964 15.25 8.7001 15.25H10.5501C10.6606 15.25 10.7501 15.1605 10.7501 15.05V11.7475C10.747 11.7185 10.7465 11.6893 10.7485 11.6602C10.7494 11.6484 10.7496 11.6366 10.749 11.6248C10.7394 11.4592 10.7615 11.2932 10.8141 11.1358C10.8686 10.9728 10.9548 10.8222 11.0677 10.6925C11.1806 10.5629 11.318 10.4569 11.472 10.3805C11.626 10.3041 11.7936 10.2589 11.9651 10.2475C12.5501 10.2475 13.0001 10.63 13.0001 11.695V15.05Z" fill="white" style="fill:white;fill:white;fill-opacity:1;"/>
<defs>
<linearGradient id="paint0_linear_31_844" x1="0" y1="0" x2="20" y2="21" gradientUnits="userSpaceOnUse">
<stop offset="0.0729167" stop-color="#5089E4" style="stop-color:#5089E4;stop-color:color(display-p3 0.3135 0.5375 0.8958);stop-opacity:1;"/>
<stop offset="1" stop-color="#1F55AB" style="stop-color:#1F55AB;stop-color:color(display-p3 0.1230 0.3337 0.6708);stop-opacity:1;"/>
</linearGradient>
</defs>
</svg>
