<svg width="20" height="20" viewBox="0 0 20 20" fill="none" xmlns="http://www.w3.org/2000/svg">
<rect width="20" height="20" rx="5" fill="url(#paint0_linear_42_536)" style=""/>
<rect width="20" height="20" rx="5" fill="url(#paint1_linear_42_536)" style=""/>
<g clip-path="url(#clip0_42_536)">
<path fill-rule="evenodd" clip-rule="evenodd" d="M14.251 7.92415L16.4977 9.15195C17.1672 9.51884 17.1672 10.4795 16.4993 10.8448L14.2526 12.0742C13.3337 12.5763 12.5789 13.3327 12.0768 14.2499L10.8488 16.4979C10.4819 17.1673 9.52111 17.1673 9.15418 16.4979L7.92463 14.2515C7.42251 13.3327 6.66611 12.5779 5.74878 12.0759L3.50212 10.8464C2.83263 10.4795 2.83263 9.51884 3.50212 9.15195L5.74878 7.92415C6.66772 7.42207 7.42251 6.66575 7.92463 5.74851L9.15256 3.50207C9.51949 2.83264 10.4803 2.83264 10.8472 3.50207L12.0752 5.74851C12.5773 6.66736 13.3337 7.42207 14.251 7.92415ZM10.9342 11.2552H11.4169V8.74481H11.0178L10.0007 10.2527L8.9836 8.74481H8.58285V11.2552H9.06567V9.72967L9.80278 10.8142H10.2051L10.9342 9.72967V9.90182V10.737V11.2552ZM13.2669 4.32443L13.2862 4.51112L12.1339 4.84908L11.5561 3.79334L11.701 3.67586C12.2964 3.19788 13.1848 3.56482 13.2669 4.32443ZM5.28219 7.62822L5.51713 7.49947C6.35552 7.04085 7.04104 6.35534 7.49964 5.51695L7.6284 5.282L6.00472 4.80568C5.27253 4.59166 4.59184 5.27074 4.80747 6.00293L5.28219 7.62822ZM14.7163 12.3703L14.4814 12.499C13.643 12.9577 12.9575 13.6432 12.4989 14.4816L12.3702 14.7165L13.9938 15.1929C14.726 15.4069 15.4067 14.7278 15.1911 13.9956L14.7163 12.3703ZM14.4817 7.49925C13.6433 7.04064 12.9578 6.35512 12.4992 5.51673L12.3721 5.2834L13.9957 4.80708C14.7279 4.59144 15.407 5.27213 15.193 6.00432L14.7167 7.62801L14.4817 7.49925ZM7.49942 14.4816C7.04082 13.6432 6.3553 12.9577 5.51691 12.499L5.28197 12.3703L4.80565 13.994C4.59162 14.7262 5.2707 15.4069 6.00289 15.1912L7.62656 14.7149L7.49942 14.4816ZM8.44246 3.79495L8.29441 3.67586C7.69892 3.19788 6.81057 3.56482 6.72849 4.32443L6.70918 4.50951L7.86631 4.84908L8.44246 3.79495ZM4.84911 7.86631L3.78854 8.44565L3.67106 8.29922C3.19308 7.70374 3.56001 6.81538 4.31963 6.73331L4.51114 6.714L4.84911 7.86631ZM3.79145 11.5561L3.66913 11.7073C3.19116 12.3028 3.55809 13.1912 4.31771 13.2733L4.50761 13.2942L4.84718 12.1354L3.79145 11.5561ZM15.1496 12.1322L16.2038 11.5561L16.3245 11.7042C16.8025 12.2996 16.4355 13.188 15.6759 13.27L15.4892 13.291L15.1496 12.1322ZM16.2086 8.44412L16.3245 8.29926C16.8025 7.70378 16.4355 6.81543 15.6759 6.73336L15.4876 6.71244L15.1496 7.86474L16.2086 8.44412ZM11.7009 16.3291L11.5529 16.21L12.1338 15.1494L13.2877 15.4874L13.2668 15.6805C13.1847 16.4401 12.2964 16.8071 11.7009 16.3291ZM6.70782 15.489L6.72874 15.6805C6.81081 16.4401 7.69919 16.8071 8.29463 16.3291L8.44591 16.2083L7.86653 15.151L6.70782 15.489Z" fill="white" style="fill:white;fill:white;fill-opacity:1;"/>
</g>
<defs>
<linearGradient id="paint0_linear_42_536" x1="0" y1="0" x2="20" y2="21" gradientUnits="userSpaceOnUse">
<stop offset="0.46875" stop-color="white" style="stop-color:white;stop-color:white;stop-opacity:1;"/>
<stop offset="1" stop-color="#D6D6D6" style="stop-color:#D6D6D6;stop-color:color(display-p3 0.8375 0.8375 0.8375);stop-opacity:1;"/>
</linearGradient>
<linearGradient id="paint1_linear_42_536" x1="0" y1="0" x2="20" y2="21" gradientUnits="userSpaceOnUse">
<stop stop-color="#8A82FF" style="stop-color:#8A82FF;stop-color:color(display-p3 0.5405 0.5098 1.0000);stop-opacity:1;"/>
<stop offset="1" stop-color="#5A4FFF" style="stop-color:#5A4FFF;stop-color:color(display-p3 0.3529 0.3098 1.0000);stop-opacity:1;"/>
</linearGradient>
<clipPath id="clip0_42_536">
<rect width="14" height="14" fill="white" style="fill:white;fill:white;fill-opacity:1;" transform="translate(3 3)"/>
</clipPath>
</defs>
</svg>
