<svg width="20" height="20" viewBox="0 0 20 20" fill="none" xmlns="http://www.w3.org/2000/svg">
<rect width="20" height="20" rx="5" fill="url(#paint0_linear_42_514)" style=""/>
<rect width="20" height="20" rx="5" fill="url(#paint1_linear_42_514)" style=""/>
<path d="M14.9356 11.963C14.9367 11.9701 14.9362 11.9774 14.9342 11.9845C14.9322 11.9915 14.9289 11.9979 14.9243 12.0035C14.9198 12.0091 14.914 12.0136 14.9077 12.0167C14.9014 12.0199 14.8944 12.0216 14.8875 12.0217C13.8928 12.029 12.3401 12.2935 10.6323 12.7838C8.92452 13.2741 7.45621 13.8761 6.59163 14.4034C6.5855 14.407 6.57871 14.4092 6.57173 14.4099C6.56474 14.4105 6.55776 14.4097 6.55119 14.4073C6.54463 14.4049 6.53869 14.4011 6.53373 14.3961C6.52878 14.3911 6.52494 14.385 6.52249 14.3783L4.99067 10.3035C4.98834 10.298 4.98755 10.2919 4.98838 10.2859C4.9892 10.2799 4.99162 10.2742 4.99535 10.2695C4.99908 10.2647 5.00399 10.2611 5.00953 10.259C5.01506 10.257 5.02103 10.2565 5.02673 10.2577L7.96416 10.8286C7.98637 10.8335 8.00973 10.83 8.02997 10.8187C8.05022 10.8074 8.06597 10.789 8.07446 10.7669L9.2589 7.40855C9.26072 7.40347 9.26377 7.39888 9.26758 7.39522C9.27148 7.39154 9.27616 7.38886 9.28122 7.3874C9.28629 7.38595 9.29154 7.38578 9.29662 7.38688C9.30171 7.38799 9.30642 7.39035 9.31037 7.39378L11.9055 9.66708C11.9229 9.68266 11.9452 9.69094 11.9684 9.69058C11.9916 9.69014 12.014 9.68102 12.0315 9.66485L14.309 7.59679C14.3133 7.59273 14.3187 7.58995 14.3245 7.58878C14.3303 7.58759 14.3362 7.5881 14.3416 7.59019C14.3471 7.59231 14.3518 7.59596 14.3553 7.60073C14.3588 7.60549 14.361 7.61117 14.3616 7.61717L14.9356 11.963ZM11.9341 8.30384L8.93839 5.67646C8.92657 5.66603 8.9124 5.6588 8.89711 5.65538C8.88183 5.65195 8.86595 5.65244 8.8507 5.65682C8.83551 5.66118 8.82146 5.66928 8.80983 5.68044C8.79819 5.69159 8.78928 5.70544 8.78391 5.72081L7.41572 9.60101C7.41172 9.61237 7.40393 9.62197 7.3938 9.62806C7.38366 9.63416 7.37181 9.63635 7.36041 9.63422L3.53409 8.88969C3.51687 8.88639 3.49903 8.88797 3.48242 8.89429C3.46582 8.90059 3.45108 8.91141 3.43976 8.92556C3.42846 8.93971 3.42101 8.95667 3.41819 8.97468C3.41537 8.99268 3.41729 9.01102 3.42376 9.02779L5.78252 15.3057C5.9772 15.8513 8.35862 15.6516 11.1492 14.8505C13.9397 14.0494 16.0952 12.9465 16.0093 12.3697L15.1231 5.66906C15.1209 5.65119 15.1141 5.63434 15.1035 5.62028C15.0927 5.60626 15.0785 5.59553 15.0622 5.5893C15.046 5.58305 15.0283 5.58151 15.0112 5.58481C14.9939 5.58816 14.9778 5.59621 14.9643 5.6082L11.9969 8.30076C11.9883 8.30888 11.9773 8.31361 11.9658 8.31419C11.9543 8.31474 11.943 8.31109 11.9341 8.30384Z" fill="url(#paint2_linear_42_514)" style=""/>
<path d="M11.491 11.2419C11.4244 10.7678 11.1924 10.4023 10.9737 10.4253C10.755 10.4482 10.6308 10.8511 10.6974 11.3251C10.7639 11.7991 10.9954 12.1648 11.2146 12.1417C11.4339 12.1186 11.5583 11.7188 11.491 11.2419Z" fill="url(#paint3_linear_42_514)" style=""/>
<path d="M13.8298 10.5691C13.764 10.0949 13.5323 9.72956 13.3134 9.75321C13.0945 9.77675 12.9674 10.18 13.0361 10.6534C13.1047 11.1267 13.3342 11.4927 13.5534 11.47C13.7725 11.4472 13.8984 11.0454 13.8298 10.5691Z" fill="url(#paint4_linear_42_514)" style=""/>
<defs>
<linearGradient id="paint0_linear_42_514" x1="0" y1="0" x2="20" y2="21" gradientUnits="userSpaceOnUse">
<stop offset="0.46875" stop-color="white" style="stop-color:white;stop-color:white;stop-opacity:1;"/>
<stop offset="1" stop-color="#D6D6D6" style="stop-color:#D6D6D6;stop-color:color(display-p3 0.8375 0.8375 0.8375);stop-opacity:1;"/>
</linearGradient>
<linearGradient id="paint1_linear_42_514" x1="0" y1="0" x2="20" y2="21" gradientUnits="userSpaceOnUse">
<stop stop-color="#353535" style="stop-color:#353535;stop-color:color(display-p3 0.2083 0.2083 0.2083);stop-opacity:1;"/>
<stop offset="1" style="stop-color:black;stop-color:black;stop-opacity:1;"/>
</linearGradient>
<linearGradient id="paint2_linear_42_514" x1="16.2021" y1="5.67459" x2="3.48373" y2="7.66955" gradientUnits="userSpaceOnUse">
<stop stop-color="#D4F2FE" style="stop-color:#D4F2FE;stop-color:color(display-p3 0.8314 0.9490 0.9961);stop-opacity:1;"/>
<stop offset="0.46875" stop-color="#FFE7B7" style="stop-color:#FFE7B7;stop-color:color(display-p3 1.0000 0.9059 0.7176);stop-opacity:1;"/>
<stop offset="1" stop-color="#F9CED5" style="stop-color:#F9CED5;stop-color:color(display-p3 0.9765 0.8078 0.8353);stop-opacity:1;"/>
</linearGradient>
<linearGradient id="paint3_linear_42_514" x1="15.048" y1="6.26263" x2="4.91128" y2="8.03349" gradientUnits="userSpaceOnUse">
<stop stop-color="#D4F2FE" style="stop-color:#D4F2FE;stop-color:color(display-p3 0.8314 0.9490 0.9961);stop-opacity:1;"/>
<stop offset="0.46875" stop-color="#FFE7B7" style="stop-color:#FFE7B7;stop-color:color(display-p3 1.0000 0.9059 0.7176);stop-opacity:1;"/>
<stop offset="1" stop-color="#F9CED5" style="stop-color:#F9CED5;stop-color:color(display-p3 0.9765 0.8078 0.8353);stop-opacity:1;"/>
</linearGradient>
<linearGradient id="paint4_linear_42_514" x1="16.1887" y1="4.72164" x2="3.68079" y2="6.90022" gradientUnits="userSpaceOnUse">
<stop stop-color="#D4F2FE" style="stop-color:#D4F2FE;stop-color:color(display-p3 0.8314 0.9490 0.9961);stop-opacity:1;"/>
<stop offset="0.46875" stop-color="#FFE7B7" style="stop-color:#FFE7B7;stop-color:color(display-p3 1.0000 0.9059 0.7176);stop-opacity:1;"/>
<stop offset="1" stop-color="#F9CED5" style="stop-color:#F9CED5;stop-color:color(display-p3 0.9765 0.8078 0.8353);stop-opacity:1;"/>
</linearGradient>
</defs>
</svg>
