<svg width="20" height="20" viewBox="0 0 20 20" fill="none" xmlns="http://www.w3.org/2000/svg">
<path fill-rule="evenodd" clip-rule="evenodd" d="M19 10L18.0614 10.9386L14.5 7.37714V5.5L19 10ZM10 1L9.06143 1.93857L12.6222 5.49871H14.5L10 1ZM7.98529 3.01857L7.04671 3.95714L8.59214 5.50257H10.4706L7.98529 3.01857ZM14.5 9.53329V11.4111L16.0467 12.9565L16.9853 12.0179L14.5 9.53329ZM13.9626 13.0253L14.5 12.4879H7.516V5.5L6.97857 6.03871L5.97057 5.03071L5.02814 5.97057L6.03614 6.97729L5.49743 7.516V8.596L3.95329 7.05057L3.01343 7.98979L5.49743 10.4751V12.6184L1.93986 9.06143L1 10L10 19L10.9399 18.0614L7.37907 14.5H9.53071L12.016 16.9853L12.9559 16.0454L11.4098 14.5H12.4898L13.0285 13.9626L14.0359 14.9706L14.9751 14.0307L13.9626 13.0253Z" fill="#E54848" style="fill:#E54848;fill:color(display-p3 0.8980 0.2824 0.2824);fill-opacity:1;"/>
</svg>
