<svg width="20" height="20" viewBox="0 0 20 20" fill="none" xmlns="http://www.w3.org/2000/svg">
<path fill-rule="evenodd" clip-rule="evenodd" d="M18 10L17.1657 10.8343L14 7.66857V6L18 10ZM10 2L9.16571 2.83429L12.3309 5.99886H14L10 2ZM8.20914 3.79429L7.37486 4.62857L8.74857 6.00229H10.4183L8.20914 3.79429ZM14 9.58514V11.2543L15.3749 12.628L16.2091 11.7937L14 9.58514ZM13.5223 12.6891L14 12.2114H7.792V6L7.31429 6.47886L6.41829 5.58286L5.58057 6.41829L6.47657 7.31314L5.99771 7.792V8.752L4.62514 7.37829L3.78971 8.21314L5.99771 10.4223V12.3274L2.83543 9.16571L2 10L10 18L10.8354 17.1657L7.67029 14H9.58286L11.792 16.2091L12.6274 15.3737L11.2531 14H12.2131L12.692 13.5223L13.5874 14.4183L14.4223 13.5829L13.5223 12.6891Z" fill="#FF6363" style="fill:#FF6363;fill:color(display-p3 1.0000 0.3882 0.3882);fill-opacity:1;"/>
</svg>
