<svg width="20" height="20" viewBox="0 0 20 20" fill="none" xmlns="http://www.w3.org/2000/svg">
<rect width="20" height="20" rx="5" fill="url(#paint0_linear_31_878)" style=""/>
<g clip-path="url(#clip0_31_878)">
<path d="M10 12.5C11.3807 12.5 12.5 11.3807 12.5 10C12.5 8.61929 11.3807 7.5 10 7.5C8.61929 7.5 7.5 8.61929 7.5 10C7.5 11.3807 8.61929 12.5 10 12.5Z" stroke="white" style="stroke:white;stroke:white;stroke-opacity:1;" stroke-width="1.25" stroke-linecap="round" stroke-linejoin="round"/>
<path d="M13.5 15C12.5494 15.6319 11.2269 16 10 16C8.81331 16 7.65328 15.6481 6.66658 14.9888C5.67989 14.3295 4.91085 13.3925 4.45673 12.2961C4.0026 11.1997 3.88378 9.99335 4.11529 8.82946C4.3468 7.66558 4.91825 6.59648 5.75736 5.75736C6.59648 4.91825 7.66558 4.3468 8.82946 4.11529C9.99335 3.88378 11.1997 4.0026 12.2961 4.45673C13.3925 4.91085 14.3295 5.67989 14.9888 6.66658C15.6481 7.65328 16 8.81331 16 10C16 11.3806 15.5 12.5 14.25 12.5C13 12.5 12.5 11.3806 12.5 10V7.5" stroke="white" style="stroke:white;stroke:white;stroke-opacity:1;" stroke-width="1.25" stroke-linecap="round" stroke-linejoin="round"/>
</g>
<defs>
<linearGradient id="paint0_linear_31_878" x1="0" y1="0" x2="20" y2="21" gradientUnits="userSpaceOnUse">
<stop offset="0.0729167" stop-color="#656565" style="stop-color:#656565;stop-color:color(display-p3 0.3958 0.3958 0.3958);stop-opacity:1;"/>
<stop offset="1" style="stop-color:black;stop-color:black;stop-opacity:1;"/>
</linearGradient>
<clipPath id="clip0_31_878">
<rect width="16" height="16" fill="white" style="fill:white;fill:white;fill-opacity:1;" transform="translate(2 2)"/>
</clipPath>
</defs>
</svg>
