<svg width="20" height="20" viewBox="0 0 20 20" fill="none" xmlns="http://www.w3.org/2000/svg">
<rect width="20" height="20" rx="5" fill="url(#paint0_linear_31_878)" style=""/>
<path d="M12.7814 9.56177C12.7314 9.53699 12.6805 9.51315 12.629 9.49032C12.5393 7.78364 11.636 6.80656 10.1193 6.79656C10.1124 6.79652 10.1055 6.79652 10.0987 6.79652C9.19147 6.79652 8.43696 7.19631 7.97256 7.92379L8.80672 8.51455C9.15365 7.97114 9.69811 7.8553 10.0991 7.8553C10.1037 7.8553 10.1084 7.8553 10.1129 7.85534C10.6123 7.85863 10.9892 8.00854 11.2331 8.30088C11.4106 8.51371 11.5293 8.80781 11.5881 9.17899C11.1453 9.10129 10.6665 9.07741 10.1546 9.10771C8.71251 9.19346 7.78545 10.0617 7.84771 11.2682C7.8793 11.8802 8.17462 12.4068 8.67923 12.7507C9.10587 13.0414 9.65535 13.1836 10.2264 13.1514C10.9806 13.1088 11.5722 12.8117 11.985 12.2685C12.2985 11.856 12.4967 11.3214 12.5843 10.6479C12.9437 10.8718 13.2101 11.1665 13.3572 11.5208C13.6073 12.1229 13.6219 13.1125 12.8398 13.9192C12.1546 14.626 11.3309 14.9318 10.0861 14.9412C8.70521 14.9306 7.6609 14.4734 6.98192 13.5823C6.3461 12.7479 6.01751 11.5426 6.00525 10C6.01751 8.45736 6.3461 7.2521 6.98192 6.41767C7.6609 5.52656 8.7052 5.06938 10.086 5.05878C11.4769 5.06946 12.5394 5.52884 13.2444 6.42425C13.5901 6.86335 13.8507 7.41555 14.0225 8.05939L15 7.79014C14.7917 6.99764 14.4641 6.31473 14.0181 5.74838C13.1143 4.60042 11.7925 4.0122 10.0894 4H10.0826C8.38299 4.01215 7.07599 4.60261 6.19795 5.75496C5.41662 6.7804 5.01358 8.20723 5.00004 9.99578L5 10L5.00004 10.0042C5.01358 11.7927 5.41662 13.2196 6.19795 14.2451C7.07599 15.3974 8.38299 15.9879 10.0826 16H10.0894C11.6005 15.9892 12.6656 15.5808 13.5431 14.6757C14.6911 13.4916 14.6565 12.0074 14.2781 11.0963C14.0067 10.4429 13.4891 9.91226 12.7814 9.56177ZM10.1724 12.0942C9.54042 12.1309 8.88381 11.8381 8.85144 11.2108C8.82744 10.7456 9.17206 10.2266 10.2112 10.1648C10.3302 10.1577 10.447 10.1543 10.5617 10.1543C10.9392 10.1543 11.2923 10.1921 11.6134 10.2646C11.4936 11.8084 10.7912 12.0591 10.1724 12.0942Z" fill="white" style="fill:white;fill:white;fill-opacity:1;"/>
<defs>
<linearGradient id="paint0_linear_31_878" x1="0" y1="0" x2="20" y2="21" gradientUnits="userSpaceOnUse">
<stop stop-color="#505050" style="stop-color:#505050;stop-color:color(display-p3 0.3125 0.3125 0.3125);stop-opacity:1;"/>
<stop offset="1" style="stop-color:black;stop-color:black;stop-opacity:1;"/>
</linearGradient>
</defs>
</svg>
