<svg width="20" height="20" viewBox="0 0 20 20" fill="none" xmlns="http://www.w3.org/2000/svg">
<rect width="20" height="20" rx="5" fill="url(#paint0_linear_30_770)" style=""/>
<g clip-path="url(#clip0_30_770)">
<path d="M3 7H8.5" stroke="white" style="stroke:white;stroke:white;stroke-opacity:1;" stroke-width="1.25" stroke-linecap="round" stroke-linejoin="round"/>
<path d="M11.5 7H17" stroke="white" style="stroke:white;stroke:white;stroke-opacity:1;" stroke-width="1.25" stroke-linecap="round" stroke-linejoin="round"/>
<path d="M10 8.5C10.8284 8.5 11.5 7.82843 11.5 7C11.5 6.17157 10.8284 5.5 10 5.5C9.17157 5.5 8.5 6.17157 8.5 7C8.5 7.82843 9.17157 8.5 10 8.5Z" stroke="white" style="stroke:white;stroke:white;stroke-opacity:1;" stroke-width="1.25" stroke-linecap="round" stroke-linejoin="round"/>
<path d="M4.5 14.5C5.32843 14.5 6 13.8284 6 13C6 12.1716 5.32843 11.5 4.5 11.5C3.67157 11.5 3 12.1716 3 13C3 13.8284 3.67157 14.5 4.5 14.5Z" stroke="white" style="stroke:white;stroke:white;stroke-opacity:1;" stroke-width="1.25" stroke-linecap="round" stroke-linejoin="round"/>
<path d="M15.5 14.5C16.3284 14.5 17 13.8284 17 13C17 12.1716 16.3284 11.5 15.5 11.5C14.6716 11.5 14 12.1716 14 13C14 13.8284 14.6716 14.5 15.5 14.5Z" stroke="white" style="stroke:white;stroke:white;stroke-opacity:1;" stroke-width="1.25" stroke-linecap="round" stroke-linejoin="round"/>
<path d="M11.4863 7.20312C12.4767 7.48183 13.3692 8.03237 14.0627 8.79237C14.7562 9.55237 15.223 10.4914 15.4101 11.5031" stroke="white" style="stroke:white;stroke:white;stroke-opacity:1;" stroke-width="1.25" stroke-linecap="round" stroke-linejoin="round"/>
<path d="M4.58984 11.5031C4.77702 10.4915 5.24379 9.55243 5.93728 8.79245C6.63077 8.03246 7.52324 7.48189 8.51359 7.20312" stroke="white" style="stroke:white;stroke:white;stroke-opacity:1;" stroke-width="1.25" stroke-linecap="round" stroke-linejoin="round"/>
</g>
<defs>
<linearGradient id="paint0_linear_30_770" x1="0" y1="0" x2="20" y2="21" gradientUnits="userSpaceOnUse">
<stop offset="0.0729167" stop-color="#FF6363" style="stop-color:#FF6363;stop-color:color(display-p3 1.0000 0.3882 0.3882);stop-opacity:1;"/>
<stop offset="1" stop-color="#C22424" style="stop-color:#C22424;stop-color:color(display-p3 0.7625 0.1430 0.1430);stop-opacity:1;"/>
</linearGradient>
<clipPath id="clip0_30_770">
<rect width="16" height="16" fill="white" style="fill:white;fill:white;fill-opacity:1;" transform="translate(2 2)"/>
</clipPath>
</defs>
</svg>
