<svg width="20" height="20" viewBox="0 0 20 20" fill="none" xmlns="http://www.w3.org/2000/svg">
<rect width="20" height="20" rx="5" fill="url(#paint0_linear_30_770)" style=""/>
<g clip-path="url(#clip0_30_770)">
<path d="M3.875 7.375H8.6875" stroke="white" style="stroke:white;stroke:white;stroke-opacity:1;" stroke-width="1.09375" stroke-linecap="round" stroke-linejoin="round"/>
<path d="M11.3125 7.375H16.125" stroke="white" style="stroke:white;stroke:white;stroke-opacity:1;" stroke-width="1.09375" stroke-linecap="round" stroke-linejoin="round"/>
<path d="M10 8.6875C10.7249 8.6875 11.3125 8.09987 11.3125 7.375C11.3125 6.65013 10.7249 6.0625 10 6.0625C9.27513 6.0625 8.6875 6.65013 8.6875 7.375C8.6875 8.09987 9.27513 8.6875 10 8.6875Z" stroke="white" style="stroke:white;stroke:white;stroke-opacity:1;" stroke-width="1.09375" stroke-linecap="round" stroke-linejoin="round"/>
<path d="M5.1875 13.9375C5.91237 13.9375 6.5 13.3499 6.5 12.625C6.5 11.9001 5.91237 11.3125 5.1875 11.3125C4.46263 11.3125 3.875 11.9001 3.875 12.625C3.875 13.3499 4.46263 13.9375 5.1875 13.9375Z" stroke="white" style="stroke:white;stroke:white;stroke-opacity:1;" stroke-width="1.09375" stroke-linecap="round" stroke-linejoin="round"/>
<path d="M14.8125 13.9375C15.5374 13.9375 16.125 13.3499 16.125 12.625C16.125 11.9001 15.5374 11.3125 14.8125 11.3125C14.0876 11.3125 13.5 11.9001 13.5 12.625C13.5 13.3499 14.0876 13.9375 14.8125 13.9375Z" stroke="white" style="stroke:white;stroke:white;stroke-opacity:1;" stroke-width="1.09375" stroke-linecap="round" stroke-linejoin="round"/>
<path d="M11.3003 7.55273C12.1669 7.7966 12.9478 8.27833 13.5546 8.94333C14.1615 9.60832 14.5699 10.43 14.7336 11.3152" stroke="white" style="stroke:white;stroke:white;stroke-opacity:1;" stroke-width="1.09375" stroke-linecap="round" stroke-linejoin="round"/>
<path d="M5.26611 11.3152C5.42989 10.43 5.83832 9.60838 6.44512 8.94339C7.05192 8.2784 7.83284 7.79666 8.69939 7.55273" stroke="white" style="stroke:white;stroke:white;stroke-opacity:1;" stroke-width="1.09375" stroke-linecap="round" stroke-linejoin="round"/>
</g>
<defs>
<linearGradient id="paint0_linear_30_770" x1="0" y1="0" x2="20" y2="21" gradientUnits="userSpaceOnUse">
<stop offset="0.0729167" stop-color="#FF6363" style="stop-color:#FF6363;stop-color:color(display-p3 1.0000 0.3882 0.3882);stop-opacity:1;"/>
<stop offset="1" stop-color="#C22424" style="stop-color:#C22424;stop-color:color(display-p3 0.7625 0.1430 0.1430);stop-opacity:1;"/>
</linearGradient>
<clipPath id="clip0_30_770">
<rect width="14" height="14" fill="white" style="fill:white;fill:white;fill-opacity:1;" transform="translate(3 3)"/>
</clipPath>
</defs>
</svg>
