<svg width="20" height="20" viewBox="0 0 20 20" fill="none" xmlns="http://www.w3.org/2000/svg">
<rect width="20" height="20" rx="5" fill="url(#paint0_linear_31_899)" style=""/>
<rect width="20" height="20" rx="5" fill="url(#paint1_linear_31_899)" style=""/>
<g clip-path="url(#clip0_31_899)">
<path d="M16.6456 6.345C16.5867 6.11459 16.4739 5.90149 16.3164 5.72327C16.159 5.54505 15.9614 5.40683 15.74 5.32C13.5975 4.4925 10.1875 4.5 10 4.5C9.8125 4.5 6.4025 4.4925 4.26 5.32C4.0386 5.40683 3.84102 5.54505 3.68356 5.72327C3.5261 5.90149 3.41327 6.11459 3.35438 6.345C3.1925 6.96875 3 8.10875 3 10C3 11.8913 3.1925 13.0313 3.35438 13.655C3.41318 13.8855 3.52597 14.0988 3.68344 14.2771C3.8409 14.4554 4.03853 14.5937 4.26 14.6806C6.3125 15.4725 9.525 15.5 9.95875 15.5H10.0413C10.475 15.5 13.6894 15.4725 15.74 14.6806C15.9615 14.5937 16.1591 14.4554 16.3166 14.2771C16.474 14.0988 16.5868 13.8855 16.6456 13.655C16.8075 13.03 17 11.8913 17 10C17 8.10875 16.8075 6.96875 16.6456 6.345ZM12.1388 10.2081L9.13875 12.2081C9.10109 12.2333 9.05732 12.2477 9.0121 12.2499C8.96688 12.2521 8.92192 12.2419 8.882 12.2206C8.84209 12.1992 8.80873 12.1674 8.78548 12.1285C8.76223 12.0897 8.74997 12.0453 8.75 12V8C8.74997 7.95473 8.76223 7.9103 8.78548 7.87146C8.80873 7.83261 8.84209 7.80081 8.882 7.77944C8.92192 7.75807 8.96688 7.74794 9.0121 7.75013C9.05732 7.75232 9.10109 7.76675 9.13875 7.79188L12.1388 9.79188C12.173 9.8147 12.2012 9.84564 12.2206 9.88195C12.2401 9.91826 12.2502 9.95881 12.2502 10C12.2502 10.0412 12.2401 10.0817 12.2206 10.1181C12.2012 10.1544 12.173 10.1853 12.1388 10.2081Z" fill="white" style="fill:white;fill:white;fill-opacity:1;"/>
</g>
<defs>
<linearGradient id="paint0_linear_31_899" x1="0" y1="0" x2="20" y2="21" gradientUnits="userSpaceOnUse">
<stop offset="0.0729167" stop-color="#656565" style="stop-color:#656565;stop-color:color(display-p3 0.3958 0.3958 0.3958);stop-opacity:1;"/>
<stop offset="1" style="stop-color:black;stop-color:black;stop-opacity:1;"/>
</linearGradient>
<linearGradient id="paint1_linear_31_899" x1="0" y1="0" x2="20" y2="21" gradientUnits="userSpaceOnUse">
<stop offset="0.0729167" stop-color="#FF6363" style="stop-color:#FF6363;stop-color:color(display-p3 1.0000 0.3882 0.3882);stop-opacity:1;"/>
<stop offset="1" stop-color="#C22424" style="stop-color:#C22424;stop-color:color(display-p3 0.7625 0.1430 0.1430);stop-opacity:1;"/>
</linearGradient>
<clipPath id="clip0_31_899">
<rect width="16" height="16" fill="white" style="fill:white;fill:white;fill-opacity:1;" transform="translate(2 2)"/>
</clipPath>
</defs>
</svg>
