<svg width="20" height="20" viewBox="0 0 20 20" fill="none" xmlns="http://www.w3.org/2000/svg">
<rect width="20" height="20" rx="5" fill="url(#paint0_linear_31_899)" style=""/>
<rect width="20" height="20" rx="5" fill="url(#paint1_linear_31_899)" style=""/>
<g clip-path="url(#clip0_31_899)">
<path d="M15.8149 6.80188C15.7634 6.60027 15.6647 6.4138 15.5269 6.25786C15.3891 6.10192 15.2162 5.98098 15.0225 5.905C13.1478 5.18094 10.1641 5.1875 10 5.1875C9.83594 5.1875 6.85219 5.18094 4.9775 5.905C4.78378 5.98098 4.61089 6.10192 4.47311 6.25786C4.33533 6.4138 4.23661 6.60027 4.18508 6.80188C4.04344 7.34766 3.875 8.34516 3.875 10C3.875 11.6548 4.04344 12.6523 4.18508 13.1981C4.23653 13.3998 4.33522 13.5864 4.47301 13.7425C4.61079 13.8985 4.78371 14.0195 4.9775 14.0955C6.77344 14.7884 9.58437 14.8125 9.96391 14.8125H10.0361C10.4156 14.8125 13.2282 14.7884 15.0225 14.0955C15.2163 14.0195 15.3892 13.8985 15.527 13.7425C15.6648 13.5864 15.7635 13.3998 15.8149 13.1981C15.9566 12.6513 16.125 11.6548 16.125 10C16.125 8.34516 15.9566 7.34766 15.8149 6.80188ZM11.8714 10.1821L9.24641 11.9321C9.21345 11.9541 9.17515 11.9667 9.13559 11.9686C9.09602 11.9706 9.05668 11.9617 9.02175 11.943C8.98683 11.9243 8.95764 11.8965 8.9373 11.8625C8.91696 11.8285 8.90622 11.7896 8.90625 11.75V8.25C8.90622 8.21039 8.91696 8.17151 8.9373 8.13752C8.95764 8.10353 8.98683 8.07571 9.02175 8.05701C9.05668 8.03831 9.09602 8.02945 9.13559 8.03137C9.17515 8.03328 9.21345 8.04591 9.24641 8.06789L11.8714 9.81789C11.9014 9.83786 11.926 9.86493 11.943 9.8967C11.9601 9.92848 11.969 9.96396 11.969 10C11.969 10.036 11.9601 10.0715 11.943 10.1033C11.926 10.1351 11.9014 10.1621 11.8714 10.1821Z" fill="white" style="fill:white;fill:white;fill-opacity:1;"/>
</g>
<defs>
<linearGradient id="paint0_linear_31_899" x1="0" y1="0" x2="20" y2="21" gradientUnits="userSpaceOnUse">
<stop offset="0.0729167" stop-color="#656565" style="stop-color:#656565;stop-color:color(display-p3 0.3958 0.3958 0.3958);stop-opacity:1;"/>
<stop offset="1" style="stop-color:black;stop-color:black;stop-opacity:1;"/>
</linearGradient>
<linearGradient id="paint1_linear_31_899" x1="0" y1="0" x2="20" y2="21" gradientUnits="userSpaceOnUse">
<stop offset="0.0729167" stop-color="#FF6363" style="stop-color:#FF6363;stop-color:color(display-p3 1.0000 0.3882 0.3882);stop-opacity:1;"/>
<stop offset="1" stop-color="#C22424" style="stop-color:#C22424;stop-color:color(display-p3 0.7625 0.1430 0.1430);stop-opacity:1;"/>
</linearGradient>
<clipPath id="clip0_31_899">
<rect width="14" height="14" fill="white" style="fill:white;fill:white;fill-opacity:1;" transform="translate(3 3)"/>
</clipPath>
</defs>
</svg>
